<svg version="1.1" xmlns="http://www.w3.org/2000/svg" xmlns:xlink="http://www.w3.org/1999/xlink" x="0px" y="0px" viewBox="0 0 32 50" enable-background="new 0 0 32 50" xml:space="preserve">
			<g>
			<g>
				<g>
					<path fill="#040305" d="M32,16.1c0-8.8-7.2-16-16-16c-8.8,0-16,7.2-16,16c0,7.6,11.9,28,15.2,33.4c0.2,0.3,0.5,0.5,0.8,0.5c0.3,0,0.6-0.2,0.8-0.5C20.1,44,32,23.7,32,16.1z M16,28.4c-6.8,0-12.4-5.5-12.4-12.4C3.6,9.2,9.2,3.7,16,3.7c6.8,0,12.4,5.5,12.4,12.4C28.4,22.9,22.8,28.4,16,28.4z"/>
				</g>
			</g>
		</g>
</svg>